# xmcd
#
# Track frame offsets: 
#        150
#        22800
#        42525
#        66375
#        85500
#        106950
#        127650
#        152625
#        167025
#        190350
#        212550
#        231375
#        234975
#        258300
#        276075
#        297975
#
# Disc length: 4188 seconds
#
# Revision: 0
# Processed by: cddbd v1.5.2PL0 Copyright (c) Steve Scherf et al.
# Submitted via: ExactAudioCopy v0.99pb5
#
DISCID=d8105a10
DTITLE=Willie Nile - Places I Have Never Been
DYEAR=2009
DGENRE=Rock
TTITLE0=Places I Have Never Been
TTITLE1=Rite Of Spring
TTITLE2=Heaven Help The Lonely
TTITLE3=Cafe Memphis
TTITLE4=Yesterday's Dreams
TTITLE5=Everybody Needs A Hammer
TTITLE6=Renegades
TTITLE7=Don't Die
TTITLE8=Breakdown
TTITLE9=Children Of Paradise
TTITLE10=That's Enough For Me
TTITLE11=Places I Have Never Beeb (Reprise)
TTITLE12=Heven Help The Lonely - Demo
TTITLE13=Cafe Memphis - Demo
TTITLE14=Renegades - Demo
TTITLE15=Don't Die - Live
EXTD=
EXTT0=
EXTT1=
EXTT2=
EXTT3=
EXTT4=
EXTT5=
EXTT6=
EXTT7=
EXTT8=
EXTT9=
EXTT10=
EXTT11=
EXTT12=
EXTT13=
EXTT14=
EXTT15=
PLAYORDER=
